# xmcd CD database file
#
# Track frame offsets:
#	150
#	20364
#	42210
#	62424
#	95514
#	332550
#
# Disc length: 4440 seconds
#
# Revision: 0
# Processed by: cddbd v1.5.1PL0 Copyright (c) Steve Scherf et al.
# Submitted via: CDex 1.51
#
DISCID=42115606
DTITLE=伍代夏子 - ふたり坂
DYEAR=2004
DGENRE=JPop
TTITLE0=ふたり坂
TTITLE1=越後草紙
TTITLE2=ふたり坂（オリジナル・カラオケ）
TTITLE3=越後草紙（オリジナル・カラオケ）
TTITLE4=１
TTITLE5=２
EXTD=YEAR: 2004
EXTT0=
EXTT1=
EXTT2=
EXTT3=
EXTT4=
EXTT5=
PLAYORDER=
